<?xml version="1.0" encoding="UTF-8"?>
<svg width="259px" height="273px" viewBox="0 0 259 273" version="1.1" xmlns="http://www.w3.org/2000/svg" xmlns:xlink="http://www.w3.org/1999/xlink">
    <title>super</title>
    <defs>
        <linearGradient x1="6.67116749%" y1="1.43815407%" x2="93.0322764%" y2="98.1482529%" id="linearGradient-1">
            <stop stop-color="#FBBB63" offset="0%"></stop>
            <stop stop-color="#FF5B00" offset="100%"></stop>
        </linearGradient>
    </defs>
    <g id="Page-1" stroke="none" stroke-width="1" fill="none" fill-rule="evenodd">
        <g id="super">
            <path d="M8,0 L135.304059,0 L135.304059,0 C174.782792,12.2707396 196.535042,18.4061094 200.560811,18.4061094 C204.586579,18.4061094 213.32344,12.2707396 226.771393,0 L251,0 C255.418278,1.50990331e-14 259,3.581722 259,8 L259,162.718502 L259,162.718502 C248.596928,198.030814 243.395392,218.22252 243.395392,223.293617 C243.395392,228.364715 248.596928,233.926353 259,239.978531 L259,265 C259,269.418278 255.418278,273 251,273 L135.304059,273 L135.304059,273 C91.3943292,262.046462 66.5077483,256.569693 60.6443162,256.569693 C54.7808841,256.569693 46.6004232,262.046462 36.1029337,273 L8,273 C3.581722,273 0,269.418278 0,265 L0,92.930681 L0,92.930681 C10.7995743,63.5214607 16.1993614,47.3506961 16.1993614,44.4183869 C16.1993614,41.4860777 10.7995743,35.6905372 0,27.0317654 L0,8 C0,3.581722 3.581722,8.8817842e-16 8,0 Z" id="Rectangle" fill="url(#linearGradient-1)"></path>
            <g id="Super" transform="translate(45, 99)" fill="#FFFFFF" fill-rule="nonzero">
                <path d="M22.5264484,44.010989 C22.5264484,42.2527473 22,40.7554945 20.9471033,39.5192308 C19.8942065,38.282967 18.5780856,37.1153846 16.9987406,36.0164835 C15.4193955,34.9175824 13.7015113,33.7912088 11.8450882,32.6373626 C9.98866499,31.4835165 8.27078086,30.1373626 6.69143577,28.5989011 C5.11209068,27.0604396 3.79596977,25.2472527 2.74307305,23.1593407 C1.69017632,21.0714286 1.16372796,18.5164835 1.16372796,15.4945055 C1.16372796,12.6923077 1.59319899,10.3159341 2.45214106,8.36538462 C3.31108312,6.41483516 4.48866499,4.82142857 5.98488665,3.58516484 C7.48110831,2.3489011 9.25440806,1.44230769 11.3047859,0.865384615 C13.3551637,0.288461538 15.5440806,-1.13686838e-13 17.8715365,-1.13686838e-13 C20.697733,-1.13686838e-13 23.3299748,0.274725275 25.768262,0.824175824 C28.2065491,1.37362637 30.2292191,2.11538462 31.836272,3.04945055 L28.5944584,12.1978022 C27.6523929,11.5384615 26.2531486,10.9340659 24.3967254,10.3846154 C22.5403023,9.83516484 20.5314861,9.56043956 18.3702771,9.56043956 C16.209068,9.56043956 14.5465995,10 13.3828715,10.8791209 C12.2191436,11.7582418 11.6372796,13.0494505 11.6372796,14.7527473 C11.6372796,16.2912088 12.163728,17.6510989 13.2166247,18.8324176 C14.2695214,20.0137363 15.5856423,21.1538462 17.1649874,22.2527473 C18.7443325,23.3516484 20.4622166,24.4917582 22.3186398,25.6730769 C24.175063,26.8543956 25.8929471,28.228022 27.4722922,29.793956 C29.0516373,31.3598901 30.3677582,33.2005495 31.4206549,35.3159341 C32.4735516,37.4313187 33,39.9450549 33,42.8571429 C33,45.7692308 32.570529,48.2967033 31.7115869,50.4395604 C30.8526448,52.5824176 29.6335013,54.3543956 28.0541562,55.7554945 C26.4748111,57.1565934 24.5768262,58.2142857 22.3602015,58.9285714 C20.1435768,59.6428571 17.6775819,60 14.9622166,60 C11.5264484,60 8.52015113,59.6703297 5.94332494,59.010989 C3.36649874,58.3516484 1.38539043,57.6098901 0,56.7857143 L3.40806045,47.4725275 C4.5163728,48.1318681 6.04030227,48.7912088 7.97984887,49.4505495 C9.91939547,50.1098901 11.9974811,50.4395604 14.2141058,50.4395604 C19.7556675,50.4395604 22.5264484,48.2967033 22.5264484,44.010989 Z" id="Path"></path>
                <path d="M47.7851459,18 L47.7851459,42.4795322 C47.7851459,45.6998051 48.086649,47.9376218 48.6896552,49.1929825 C49.2926614,50.4483431 50.3890363,51.0760234 51.9787798,51.0760234 C53.5137047,51.0760234 54.8019452,50.5165692 55.8435013,49.3976608 C56.8850575,48.2787524 57.6251105,46.9278752 58.0636605,45.3450292 L58.0636605,18 L67.8488064,18 L67.8488064,46.4912281 C67.8488064,48.7290448 67.9310345,50.9259259 68.0954907,53.0818713 C68.2599469,55.2378168 68.56145,57.1890838 69,58.9356725 L61.5994695,58.9356725 L59.872679,53.3684211 L59.6259947,53.3684211 C58.5844385,55.2787524 57.1728559,56.8615984 55.3912467,58.1169591 C53.6096375,59.3723197 51.403183,60 48.7718833,60 C47.0725022,60 45.5649867,59.7680312 44.2493369,59.3040936 C42.933687,58.8401559 41.8099027,58.0350877 40.8779841,56.8888889 C39.9460654,55.7426901 39.2334218,54.1734893 38.7400531,52.1812865 C38.2466844,50.1890838 38,47.6647173 38,44.6081871 L38,18 L47.7851459,18 Z" id="Path"></path>
                <path d="M75,16.994382 L82.2796834,16.994382 L83.2612137,21.7176966 L83.5065963,21.7176966 C84.760774,19.7289326 86.1649077,18.2787921 87.7189974,17.3672753 C89.2730871,16.4557584 91.1952507,16 93.4854881,16 C97.6297274,16 100.751539,17.5882491 102.850923,20.7647472 C104.950308,23.9412453 106,29.2308052 106,36.633427 C106,44.0360487 104.691293,49.7123127 102.073879,53.6622191 C99.4564644,57.6121255 95.6666667,59.5870787 90.7044855,59.5870787 C89.3957784,59.5870787 88.2779244,59.4765918 87.3509235,59.255618 C86.4239226,59.0346442 85.5514512,58.6755618 84.7335092,58.1783708 L84.7335092,75 L75,75 L75,16.994382 Z M84.7335092,49.1460674 C85.2788039,49.6985019 85.8922603,50.1128277 86.5738786,50.3890449 C87.2554969,50.6652622 88.1416007,50.8033708 89.23219,50.8033708 C91.4133685,50.8033708 93.0765172,49.7123127 94.2216359,47.5301966 C95.3667546,45.3480805 95.939314,41.6329588 95.939314,36.3848315 C95.939314,32.4625468 95.5030783,29.5484551 94.6306069,27.6425562 C93.7581354,25.7366573 92.3131047,24.7837079 90.2955145,24.7837079 C87.5690413,24.7837079 85.7150396,26.4133895 84.7335092,29.6727528 L84.7335092,49.1460674 Z" id="Shape"></path>
                <path d="M140.827027,55.8254269 C139.430631,57.0499684 137.531532,58.0518659 135.12973,58.8311195 C132.727928,59.6103732 130.214414,60 127.589189,60 C124.684685,60 122.185135,59.4990512 120.090541,58.4971537 C117.995946,57.4952562 116.278378,56.0480708 114.937838,54.1555977 C113.597297,52.2631246 112.605856,49.9671094 111.963514,47.2675522 C111.321171,44.5679949 111,41.4927261 111,38.0417457 C111,30.5275142 112.494144,24.9753321 115.482432,21.3851992 C118.470721,17.7950664 122.618018,16 127.924324,16 C129.711712,16 131.443243,16.2643896 133.118919,16.7931689 C134.794595,17.3219481 136.288739,18.2125237 137.601351,19.4648956 C138.913964,20.7172676 139.975225,22.3870968 140.785135,24.4743833 C141.595045,26.5616698 142,29.1916509 142,32.3643264 C142,33.5888678 141.93018,34.8969007 141.790541,36.288425 C141.650901,37.6799494 141.441441,39.1827957 141.162162,40.7969639 L120.802703,40.7969639 C120.914414,44.2479443 121.640541,46.8918406 122.981081,48.7286528 C124.321622,50.5654649 126.472072,51.483871 129.432432,51.483871 C131.21982,51.483871 132.853604,51.2055661 134.333784,50.6489564 C135.813964,50.0923466 136.945045,49.5079064 137.727027,48.8956357 L140.827027,55.8254269 Z M127.756757,24.516129 C125.634234,24.516129 124.042342,25.3649589 122.981081,27.0626186 C121.91982,28.7602783 121.305405,31.1397849 121.137838,34.2011385 L132.7,34.2011385 C132.867568,31.028463 132.532432,28.6211259 131.694595,26.9791271 C130.856757,25.3371284 129.544144,24.516129 127.756757,24.516129 Z" id="Shape"></path>
                <path d="M167.824,27.5411765 C166.48,27.0470588 165.248,26.8 164.128,26.8 C162.616,26.8 161.314,27.2117647 160.222,28.0352941 C159.13,28.8588235 158.388,30.0117647 157.996,31.4941176 L157.996,59 L148,59 L148,17.8235294 L155.644,17.8235294 L156.82,22.7647059 L157.156,22.7647059 C157.884,20.9529412 158.934,19.5392157 160.306,18.5235294 C161.678,17.5078431 163.26,17 165.052,17 C166.396,17 167.712,17.2745098 169,17.8235294 L167.824,27.5411765 Z" id="Path"></path>
            </g>
        </g>
    </g>
</svg>